<mxfile host="app.diagrams.net" modified="2024-06-12T13:31:37.593Z" agent="Mozilla/5.0 (Macintosh; Intel Mac OS X 10_15_7) AppleWebKit/537.36 (KHTML, like Gecko) Chrome/125.0.0.0 Safari/537.36" version="24.4.13" etag="-vZ_TNhBFTIc_nT2EjOs" type="github">
  <diagram name="第 1 页" id="6i-qubCnPqBq2r984ZbN">
    <mxGraphModel>
      <root>
        <mxCell id="0" />
        <mxCell id="1" parent="0" />
      </root>
    </mxGraphModel>
  </diagram>
</mxfile>
